<svg xmlns="http://www.w3.org/2000/svg" viewBox="0 0 15.56 16"><defs><style>.cls-1{fill:#666;}</style></defs><title>Ресурс 1</title><g id="Слой_2" data-name="Слой 2"><g id="Слой_1-2" data-name="Слой 1"><path class="cls-1" d="M13.73,8.78A6.53,6.53,0,0,0,13.78,8a4.93,4.93,0,0,0-.06-.78L15.41,5.9a.41.41,0,0,0,.1-.51l-1.6-2.77a.41.41,0,0,0-.49-.18l-2,.8a5.86,5.86,0,0,0-1.35-.78L9.78.34A.4.4,0,0,0,9.38,0H6.18a.39.39,0,0,0-.39.34l-.3,2.12a6,6,0,0,0-1.35.78l-2-.8a.4.4,0,0,0-.49.18L.06,5.39a.39.39,0,0,0,.1.51L1.85,7.22a4.71,4.71,0,0,0,0,1.56L.15,10.1a.41.41,0,0,0-.1.51l1.6,2.77a.41.41,0,0,0,.49.18l2-.8a5.86,5.86,0,0,0,1.35.78l.3,2.12a.41.41,0,0,0,.4.34h3.2a.38.38,0,0,0,.39-.34l.3-2.12a6,6,0,0,0,1.35-.78l2,.8a.4.4,0,0,0,.49-.18l1.6-2.77a.39.39,0,0,0-.1-.51ZM7.78,11a3,3,0,1,1,3-3A3,3,0,0,1,7.78,11Z"/></g></g></svg>